<svg width="212" height="52" viewBox="0 0 212 52" fill="none" xmlns="http://www.w3.org/2000/svg">
<path d="M21.2024 10.7591C23.4279 9.94783 25.6837 9.37479 28.0672 9.48601C27.8408 9.68731 27.5534 9.68353 27.2847 9.72855C25.3862 10.0466 23.5327 10.5115 21.7779 11.3287C20.1151 12.103 18.6752 13.1574 17.5397 14.6087C17.4727 14.6943 17.3699 14.7645 17.3969 14.9179C18.9135 13.6365 20.5717 12.5988 22.3562 11.7653C25.2708 10.404 28.3315 9.85844 31.5353 10.1858C33.1047 10.3462 34.6069 10.7753 36.0438 11.4289C36.1743 11.4882 36.3064 11.5442 36.4499 11.5672C34.4167 10.1635 32.0876 9.6843 29.6813 9.42927C30.0447 9.26936 30.4252 9.21159 30.8038 9.21964C34.2751 9.29323 37.3103 10.3782 39.5741 13.1349C40.3207 14.0442 40.8305 15.1009 41.0711 16.269C41.0872 16.3467 41.0995 16.4254 41.1092 16.5041C41.1116 16.5236 41.0969 16.5452 41.0781 16.6017C40.6234 16.2378 40.187 15.8715 39.7332 15.5281C36.4452 13.0401 32.7546 12.11 28.6728 12.6499C26.5497 12.9307 24.4682 13.3618 22.4688 14.1474C20.1872 15.0438 18.3074 16.4765 16.7571 18.3667C15.8191 19.5103 15.1773 20.8243 14.513 22.1279C14.3759 22.397 14.2409 22.6671 14.0854 22.9299C14.1774 22.2468 14.3867 21.5951 14.5838 20.9368C14.2339 21.5251 13.9095 22.1286 13.7379 22.7921C12.9824 25.7139 12.7432 28.6677 13.2053 31.6656C13.4513 33.2615 13.828 34.8253 14.2831 36.3722C14.3084 36.4582 14.3285 36.5458 14.3359 36.6368C13.1872 34.5317 12.5819 32.2726 12.3967 29.8885C12.212 27.5108 12.5441 25.1821 13.0069 22.8571C12.8203 23.1469 12.7044 23.4651 12.608 23.7916C11.5942 27.2251 11.8185 30.6348 12.8421 34.0175C13.2349 35.3157 13.8553 36.5067 14.6582 37.6122C15.0613 38.1674 15.3201 38.8251 15.6718 39.4202C17.2988 42.1731 19.3798 44.5395 21.8222 46.5942C22.0116 46.7536 22.2178 46.8928 22.4272 47.0497C21.5214 46.9227 18.1902 44.4344 16.3823 42.5306C14.6257 40.6807 13.2967 38.5356 12.0733 36.3009C12.1023 36.4214 12.1267 36.5432 12.1613 36.662C12.1994 36.7926 12.2472 36.9203 12.2902 37.0494C12.8807 38.8232 13.8345 40.4003 14.917 41.9083C15.3075 42.4524 15.6771 43.0111 15.985 43.6063C16.0773 43.7847 16.2848 44.03 16.0871 44.1824C15.9152 44.3149 15.7235 44.0644 15.5796 43.9369C14.3254 42.8252 13.2195 41.5785 12.2718 40.1969C9.90723 36.7498 8.60203 32.9437 8.49548 28.7559C8.33623 22.4947 10.6363 17.289 15.3136 13.1377C18.0248 10.7313 21.1781 9.21254 24.7454 8.55814C24.857 8.53766 24.9691 8.51008 25.0815 8.50689C25.1706 8.50439 25.3081 8.40136 25.3414 8.5492C25.3643 8.65113 25.2384 8.72164 25.144 8.757C24.7297 8.91221 24.3099 9.05283 23.8962 9.20954C22.9158 9.58087 21.9854 10.0425 21.2024 10.7591ZM11.7718 34.3101C11.339 32.5105 11.0812 30.6817 10.881 28.8432C10.6859 30.7477 10.9689 32.5724 11.7718 34.3101ZM11.9223 21.6327C11.1963 23.0139 10.8396 24.4838 10.7942 26.0319C11.1702 24.5655 11.5462 23.0991 11.9223 21.6327ZM14.4303 16.2768C15.241 15.2902 16.1741 14.4237 17.0222 13.4794C15.9189 14.1929 15.0608 15.1334 14.4303 16.2768ZM9.38072 26.9387C9.23388 27.6631 9.26911 28.2719 9.44409 28.5532C9.42208 27.9924 9.4014 27.4656 9.38072 26.9387Z" fill="black"/>
<path d="M16.7671 36.4436C15.6671 33.8924 15.8338 31.1483 15.5029 28.4779C15.3587 29.189 15.3007 29.9073 15.2938 30.6274C15.273 32.8021 15.6054 34.9221 16.3185 36.9796C16.3371 37.0332 16.3564 37.0868 16.3693 37.1418C16.4105 37.3191 16.4763 37.5161 16.3181 37.6545C16.1459 37.8052 15.98 37.6815 15.8256 37.5794C15.8012 37.5632 15.7635 37.5673 15.7056 37.5577C15.8105 37.9566 16.0307 38.3066 16.0653 38.7427C15.4483 38.2988 14.3011 35.0811 14.0548 32.9801C13.5134 28.3628 14.7448 24.2118 17.5964 20.5814C20.468 16.9256 24.3332 14.9856 28.925 14.5342C31.6822 14.2632 34.3629 14.6768 36.9653 15.8225C36.7577 15.9911 36.6145 15.906 36.4827 15.8734C34.8531 15.47 33.2001 15.2874 31.522 15.3328C29.0632 15.3992 26.7532 16.0238 24.5806 17.1734C22.2482 18.4076 20.3692 20.1541 18.7997 22.2551C18.4748 22.6901 18.1359 23.1147 17.8378 23.572C18.1022 22.4588 18.7323 21.5223 19.2927 20.5504C18.7651 21.0743 18.332 21.6669 17.9384 22.2908C17.1705 23.5078 16.6337 24.8301 16.159 26.181C16.1003 26.3482 16.0617 26.5004 16.2313 26.6396C16.3872 26.7676 16.3437 26.947 16.3044 27.1149C16.1379 27.825 16.0783 28.5489 16.0286 29.2738C16.0206 29.3911 15.9873 29.5127 16.0635 29.6768C16.1345 29.3715 16.2066 29.1125 16.2542 28.849C16.5414 27.2588 17.0922 25.7659 17.8931 24.3639C18.0465 24.0954 18.2232 23.8465 18.4774 23.6637C18.5808 23.5893 18.7001 23.5268 18.8211 23.6151C18.9476 23.7076 18.9121 23.8426 18.8591 23.9562C18.768 24.1511 18.6662 24.3417 18.558 24.5277C17.1806 26.894 16.6246 29.4749 16.5699 32.1829C16.5425 33.5344 16.6642 34.8807 16.763 36.2272C16.7683 36.299 16.7659 36.3714 16.7671 36.4436Z" fill="black"/>
<path d="M40.6194 27.6646C40.4438 27.2815 40.1733 26.9632 39.9317 26.626C39.8392 26.497 39.7488 26.3656 39.646 26.245C39.5015 26.0752 39.5284 25.9233 39.6542 25.7566C39.9488 25.3663 40.1892 24.9412 40.4242 24.5135C40.5989 24.1954 40.6872 24.1709 41.0078 24.3714C41.4638 24.6566 41.8372 25.0408 42.2196 25.411C43.3504 26.5057 44.3455 27.7083 45.0901 29.1037C45.3546 29.5993 45.3462 29.6798 44.9877 30.0998C43.7904 31.5028 42.3187 32.5112 40.5872 33.1416C40.1761 33.2913 40.1287 33.2759 39.9305 32.8732C39.2062 31.4017 38.3239 30.0323 37.282 28.767C37.1008 28.547 37.1349 28.4088 37.3507 28.2422C38.0002 27.7411 38.5775 27.1622 39.095 26.5267C39.2508 26.3354 39.3625 26.3422 39.5336 26.5044C39.9186 26.8693 40.2455 27.2869 40.6194 27.6646Z" fill="black"/>
<path d="M45.1992 21.9697C45.9142 22.7176 46.572 23.5094 47.0821 24.4159C47.2512 24.7165 47.2881 25.0284 47.231 25.3674C47.0146 26.6506 46.5351 27.8287 45.8386 28.9225C45.6558 29.2097 45.5943 29.211 45.4347 28.9169C44.3559 26.9291 42.8859 25.2851 41.0676 23.9489C40.8767 23.8086 40.8387 23.656 40.9265 23.4517C41.4128 22.3192 41.7398 21.1421 41.9151 19.9224C41.9709 19.5339 42.2179 19.6935 42.394 19.7804C43.0281 20.0934 43.589 20.5194 44.129 20.9714C44.5032 21.2846 44.8654 21.6121 45.1992 21.9697Z" fill="black"/>
<path d="M47.3292 24.0934C46.9284 23.5057 46.5733 22.9401 46.1442 22.4277C45.0485 21.1196 43.809 19.9841 42.2576 19.235C41.9886 19.1051 41.9897 18.904 41.9847 18.6762C41.9615 17.6165 41.8293 16.5741 41.4934 15.5637C41.4266 15.3628 41.3067 15.1768 41.3174 14.9164C41.8518 15.0365 42.2661 15.3471 42.6829 15.6494C43.5978 16.3131 44.3633 17.1348 45.1217 17.9641C45.2653 18.1212 45.4172 18.2708 45.5797 18.4102C44.9193 17.3979 44.1088 16.5173 43.1993 15.7294C42.5916 15.203 41.9843 14.6661 41.1938 14.4145C41.0831 14.3793 41.0432 14.2819 40.9927 14.1952C40.3575 13.1042 39.5856 12.1245 38.6373 11.2792C39.2414 11.5379 39.8023 11.87 40.3242 12.2633C42.8325 14.1538 44.9006 16.4231 46.2795 19.2715C46.934 20.6233 47.3056 22.055 47.3823 23.5585C47.3903 23.7149 47.4054 23.8738 47.3292 24.0934Z" fill="black"/>
<path d="M35.2979 33.0516C35.4023 32.7517 35.2438 32.5903 35.0678 32.4164C34.728 32.0805 34.431 31.7074 34.1948 31.2895C33.9708 30.8932 33.6027 30.5821 33.5021 30.086C34.1652 29.9351 34.8321 29.7652 35.4532 29.4552C35.7788 29.2926 36.097 29.1181 36.3894 28.9023C36.6448 28.7137 36.8578 28.7256 37.0683 28.9725C38.1062 30.1897 38.9255 31.5442 39.5923 32.9931C39.7585 33.3544 39.7158 33.4111 39.3199 33.475C38.2612 33.6457 37.2159 33.6349 36.207 33.2158C36.0304 33.1424 35.8539 33.0556 35.7002 32.9437C35.5242 32.8155 35.4028 32.7928 35.2979 33.0516Z" fill="black"/>
<path d="M28.7261 13.1943C25.4831 13.9874 22.3746 15.0915 19.6114 17.0161C22.0484 14.3217 25.2441 13.4159 28.7261 13.1943Z" fill="black"/>
<path d="M16.771 43.7633C17.4067 44.3261 17.9999 44.8808 18.6245 45.3977C19.6924 46.2817 20.8566 47.0258 22.0689 47.6971C22.2197 47.7806 22.5326 47.8438 22.4301 48.0553C22.332 48.2577 22.0851 48.057 21.9219 47.9957C20.433 47.4361 19.0743 46.6524 17.8835 45.5918C17.4481 45.2039 17.0818 44.7585 16.8507 44.2148C16.7947 44.0832 16.7335 43.9516 16.771 43.7633Z" fill="black"/>
<path d="M18.4609 42.4444C17.7967 41.5186 16.9728 40.5911 16.7882 39.3153C16.7573 39.1017 16.7376 38.8873 16.7722 38.6716C16.7849 38.5923 16.7898 38.5008 16.8854 38.4845C16.9587 38.472 17.0061 38.5381 17.0434 38.5952C17.0866 38.6614 17.1322 38.7279 17.1621 38.8003C17.6175 39.9036 18.2175 40.9293 18.841 41.9426C18.9538 42.126 19.0665 42.3107 19.1125 42.5252C19.1338 42.6247 19.1648 42.7347 19.0682 42.8097C18.9446 42.9058 18.856 42.7918 18.7708 42.732C18.679 42.6676 18.6039 42.5794 18.4609 42.4444Z" fill="black"/>
<path d="M22.5029 46.1346C21.7042 45.4851 20.844 44.9226 20.2333 44.0882C20.0976 43.9028 19.9883 43.708 19.9466 43.4813C19.9329 43.407 19.8996 43.3112 19.9785 43.2612C20.0695 43.2035 20.1495 43.2741 20.2227 43.3265C20.2498 43.3459 20.2748 43.3711 20.2941 43.3983C20.9468 44.3239 21.6824 45.1817 22.438 46.0232C22.4661 46.0545 22.4816 46.0972 22.5029 46.1346Z" fill="black"/>
<path d="M28.6157 8.51288C28.9057 8.35312 29.2079 8.35413 29.5122 8.37721C29.5687 8.38148 29.6314 8.39464 29.6322 8.4671C29.6329 8.53002 29.5848 8.57762 29.5292 8.58693C29.2202 8.63859 28.9133 8.64358 28.6157 8.51288Z" fill="black"/>
<path d="M23.7251 48.4791C23.7913 48.5416 23.8515 48.6188 23.7733 48.6587C23.5784 48.7583 23.4001 48.6477 23.2314 48.5613C23.1458 48.5174 23.0826 48.3888 23.1802 48.344C23.3874 48.249 23.5522 48.4382 23.7251 48.4791Z" fill="black"/>
<path d="M69.1859 29.068H65.2439C65.0999 29.446 64.2179 31.912 64.2179 32.488C64.2179 32.884 64.3799 33.316 64.9199 33.316H65.5499C65.7299 33.316 65.7479 33.388 65.7479 33.46V33.856C65.7479 34 65.7299 34.054 65.5859 34.054C65.3519 34.054 64.6139 34 63.1379 34C61.8239 34 61.4279 34.054 61.1759 34.054C61.0679 34.054 61.0499 33.946 61.0499 33.82V33.478C61.0499 33.37 61.0679 33.316 61.1759 33.316H61.6439C62.0759 33.316 62.5079 33.064 62.8679 32.524C63.1199 32.146 64.3979 29.014 64.9919 27.43C65.1359 27.07 66.5939 23.2 66.7559 22.714C66.8099 22.534 66.8999 22.3 66.7739 22.102C66.7199 22.03 66.6479 21.94 66.6479 21.868C66.6479 21.814 66.6839 21.742 66.8279 21.706C67.4039 21.58 68.5739 21.112 68.8439 20.806C68.9339 20.716 68.9879 20.644 69.0779 20.644C69.1859 20.644 69.2219 20.752 69.2759 20.95C69.6179 22.084 71.0219 26.116 71.3639 27.268C71.7779 28.672 72.9479 32.02 73.1999 32.506C73.5059 33.1 73.9739 33.316 74.2439 33.316H74.8559C74.9639 33.316 74.9819 33.388 74.9819 33.478V33.82C74.9819 33.928 74.9639 34.054 74.8199 34.054C74.4779 34.054 74.0999 34 71.7959 34C70.3019 34 69.6719 34.054 69.3119 34.054C69.1319 34.054 69.1139 33.946 69.1139 33.82V33.478C69.1139 33.388 69.1319 33.316 69.2219 33.316H69.7259C70.2119 33.316 70.3739 33.136 70.2659 32.668C70.1039 32.02 69.4019 29.716 69.1859 29.068ZM65.4779 28.348H69.0239C68.8619 27.808 67.7999 24.028 67.6739 23.578C67.6019 23.308 67.5659 23.182 67.4759 23.182C67.3679 23.182 67.3139 23.254 67.2599 23.416C67.1699 23.65 65.6219 27.898 65.4779 28.348ZM83.5429 21.904H79.7989C79.5469 21.904 79.2589 21.922 78.7909 22.246C78.4129 22.498 76.8649 24.244 76.4869 24.73C76.4329 24.82 76.3429 24.874 76.2709 24.838L75.9649 24.676C75.9109 24.658 75.8929 24.604 75.9109 24.514L77.0449 21.31C77.0989 21.148 77.2069 21.112 77.2969 21.112C77.4229 21.112 77.5669 21.13 77.7109 21.148C78.5569 21.256 81.0949 21.256 82.5889 21.256C83.6869 21.256 84.6229 21.22 85.3069 21.202C85.9189 21.166 86.4949 21.148 86.6209 21.148C86.9089 21.148 87.0349 21.382 86.8729 21.58C86.7289 21.742 78.8449 32.794 78.4849 33.28H82.8229C83.3269 33.28 83.7049 33.28 84.1549 33.082C84.6769 32.848 86.4409 30.994 86.6929 30.688C86.7649 30.616 86.8369 30.598 86.9269 30.634L87.2329 30.796C87.2869 30.832 87.3229 30.868 87.2689 30.958C87.0169 31.372 86.1529 33.586 85.9009 34.072C85.8649 34.162 85.7569 34.252 85.6669 34.252C85.5949 34.252 85.4509 34.234 85.2169 34.198C84.2269 34.072 81.3649 34 79.7449 34H75.5329C75.3889 34 75.1909 34 75.1909 33.856C75.1909 33.748 75.2089 33.604 75.2809 33.496C76.0189 32.362 83.4169 22.12 83.5429 21.904ZM89.0171 27.106V22.858C89.0171 22.228 88.8911 21.94 88.5131 21.94H87.6671C87.5591 21.94 87.5411 21.904 87.5411 21.778V21.346C87.5411 21.238 87.5591 21.202 87.7031 21.202C87.8831 21.202 88.7651 21.256 90.6551 21.256C92.2391 21.256 93.1031 21.202 93.3011 21.202C93.4451 21.202 93.4631 21.238 93.4631 21.346V21.814C93.4631 21.904 93.4451 21.94 93.3191 21.94H92.7071C92.0951 21.94 91.7891 22.282 91.7531 22.642C91.7351 22.84 91.7171 24.064 91.7171 24.982V26.17C91.7171 27.124 91.7891 29.41 91.8071 29.986C91.8251 30.814 91.9871 31.624 92.3831 32.128C92.9771 32.848 93.8231 33.136 94.6331 33.136C95.2991 33.136 96.2711 32.794 96.7571 32.344C97.4771 31.696 97.8911 30.706 97.8911 29.41V26.638C97.8911 25.126 97.7111 23.146 97.6391 22.732C97.5671 22.264 97.2791 21.94 96.9731 21.94H96.3971C96.2891 21.94 96.2711 21.886 96.2711 21.796V21.328C96.2711 21.238 96.2891 21.202 96.3971 21.202C96.5771 21.202 97.4051 21.256 98.6291 21.256C99.6011 21.256 100.177 21.202 100.339 21.202C100.501 21.202 100.519 21.274 100.519 21.364V21.76C100.519 21.868 100.501 21.94 100.411 21.94H99.8531C99.1691 21.94 99.1151 22.444 99.0791 22.624C99.0431 22.876 99.0431 25.36 99.0431 25.612C99.0431 25.864 99.0071 29.014 98.9531 29.716C98.8451 31.192 98.3591 32.326 97.4231 33.154C96.6311 33.856 95.4071 34.27 94.2371 34.27C93.3911 34.27 92.2391 34.144 91.4831 33.82C90.6191 33.442 89.8271 32.596 89.3951 31.444C89.0891 30.67 89.0171 29.464 89.0171 27.106ZM105.46 26.818V28.366C105.46 28.672 105.46 32.56 105.514 33.28H106.54C107.386 33.28 108.196 33.28 109.168 33.19C110.14 33.1 111.364 30.94 111.634 30.274C111.688 30.166 111.742 30.112 111.85 30.166L112.21 30.31C112.264 30.346 112.264 30.364 112.246 30.472C112.192 30.598 111.472 33.568 111.364 34.054C110.896 34.018 105.712 34 104.056 34C102.274 34 101.626 34.054 101.392 34.054C101.266 34.054 101.248 34.018 101.248 33.892V33.442C101.248 33.352 101.266 33.316 101.374 33.316H101.932C102.598 33.316 102.706 33.064 102.706 32.866C102.706 32.524 102.76 28.042 102.76 26.944V25.936C102.76 24.784 102.724 22.876 102.706 22.588C102.67 22.12 102.58 21.94 102.166 21.94H101.5C101.392 21.94 101.374 21.85 101.374 21.76V21.328C101.374 21.238 101.392 21.202 101.5 21.202C101.698 21.202 102.346 21.256 103.984 21.256C106.09 21.256 106.846 21.202 107.008 21.202C107.152 21.202 107.17 21.256 107.17 21.382V21.796C107.17 21.886 107.134 21.94 106.99 21.94H106.144C105.586 21.94 105.514 22.12 105.514 22.606C105.514 22.84 105.46 25.558 105.46 26.818ZM121.107 21.868L121.053 27.106C121.881 27.106 122.673 27.052 122.889 26.998C123.195 26.926 123.447 26.764 123.717 26.44C123.915 26.17 124.131 25.666 124.131 25.324C124.131 25.198 124.185 25.162 124.275 25.162L124.761 25.216C124.851 25.234 124.923 25.252 124.905 25.36C124.851 25.666 124.851 26.602 124.851 27.232C124.851 28.042 124.923 28.906 124.959 29.284C124.977 29.392 124.905 29.41 124.815 29.428L124.383 29.518C124.311 29.536 124.275 29.5 124.239 29.374C124.167 29.086 123.987 28.672 123.879 28.456C123.681 28.114 123.249 27.88 122.889 27.826C122.403 27.754 121.845 27.718 121.053 27.718V28.798C121.053 29.77 121.143 31.516 121.143 31.84C121.143 32.776 121.341 33.1 121.575 33.208C121.845 33.316 122.187 33.37 123.087 33.37C123.393 33.37 124.149 33.352 124.527 33.316C124.887 33.28 125.427 33.1 125.895 32.722C126.363 32.344 127.371 31.228 127.731 30.796C127.803 30.724 127.857 30.706 127.911 30.742L128.217 30.922C128.289 30.958 128.307 31.012 128.289 31.066L127.479 33.784C127.425 33.946 127.299 34.054 127.083 34.054C126.993 34.054 126.597 34.036 125.445 34.018C124.275 34.018 122.367 34 119.253 34C118.587 34 118.083 34.018 117.723 34.018C117.345 34.036 117.111 34.054 116.949 34.054C116.823 34.054 116.787 34 116.787 33.856V33.478C116.787 33.37 116.841 33.316 116.967 33.316H117.507C118.335 33.316 118.407 33.19 118.407 32.56V26.53C118.407 25.036 118.371 22.822 118.353 22.642C118.281 22.066 118.101 21.94 117.615 21.94H116.913C116.841 21.94 116.823 21.886 116.823 21.76V21.328C116.823 21.274 116.841 21.202 116.949 21.202C117.345 21.202 117.975 21.256 119.613 21.256L125.931 21.238C126.219 21.238 126.561 21.202 126.651 21.202C126.741 21.202 126.777 21.238 126.795 21.292C126.867 21.544 127.461 24.01 127.533 24.19C127.569 24.28 127.569 24.316 127.479 24.37L127.191 24.514C127.119 24.55 127.029 24.532 126.975 24.442C126.885 24.298 125.265 22.678 124.851 22.426C124.473 22.192 123.969 21.958 123.483 21.94L121.107 21.868ZM131.307 27.394C131.307 27.61 131.325 30.058 131.433 31.642C131.487 32.308 131.775 33.316 132.369 33.316H133.071C133.179 33.316 133.197 33.37 133.197 33.442V33.928C133.197 34 133.179 34.054 133.035 34.054C132.837 34.054 132.351 34 131.037 34C129.507 34 128.877 34.054 128.715 34.054C128.571 34.054 128.553 34.036 128.553 33.892V33.424C128.553 33.37 128.571 33.316 128.661 33.316H129.399C129.975 33.316 130.191 32.488 130.263 31.912C130.425 30.634 130.587 26.386 130.587 26.062L130.569 23.308C130.569 22.48 130.389 21.94 129.579 21.94H128.985C128.877 21.94 128.859 21.886 128.859 21.814V21.31C128.859 21.256 128.877 21.202 128.985 21.202C129.165 21.202 129.651 21.256 131.775 21.256C132.621 21.256 133.179 21.202 133.395 21.202C133.575 21.202 133.719 21.22 133.827 21.508C134.979 24.568 136.275 27.556 137.283 30.256C137.481 29.914 138.849 26.566 138.957 26.314C139.029 26.134 140.829 21.832 140.919 21.472C140.973 21.274 141.207 21.256 141.747 21.256C144.555 21.256 145.167 21.202 145.365 21.202C145.455 21.202 145.473 21.256 145.473 21.364V21.778C145.473 21.886 145.455 21.94 145.329 21.94H144.537C144.123 21.94 144.069 22.264 144.069 22.642C144.069 22.912 144.087 27.34 144.105 27.718C144.105 28.078 144.159 32.02 144.159 32.344C144.159 33.028 144.321 33.316 144.573 33.316H145.437C145.545 33.316 145.563 33.37 145.563 33.442V33.892C145.563 34 145.545 34.054 145.401 34.054C145.185 34.054 144.861 34 142.737 34C140.901 34 140.199 34.054 139.965 34.054C139.839 34.054 139.821 34 139.821 33.892V33.442C139.821 33.352 139.839 33.316 139.965 33.316H140.973C141.279 33.316 141.441 33.208 141.477 32.704C141.495 32.488 141.549 29.212 141.549 27.952V22.462H141.441C141.261 22.768 139.245 27.664 138.921 28.402C138.543 29.23 136.941 33.226 136.851 33.388C136.761 33.532 136.635 33.802 136.419 33.802C136.293 33.802 136.185 33.676 136.095 33.478C136.041 33.352 133.665 27.772 133.539 27.448C133.215 26.62 131.559 22.588 131.415 22.372C131.343 22.624 131.307 27.178 131.307 27.394ZM151.183 21.868L151.129 27.106C151.957 27.106 152.749 27.052 152.965 26.998C153.271 26.926 153.523 26.764 153.793 26.44C153.991 26.17 154.207 25.666 154.207 25.324C154.207 25.198 154.261 25.162 154.351 25.162L154.837 25.216C154.927 25.234 154.999 25.252 154.981 25.36C154.927 25.666 154.927 26.602 154.927 27.232C154.927 28.042 154.999 28.906 155.035 29.284C155.053 29.392 154.981 29.41 154.891 29.428L154.459 29.518C154.387 29.536 154.351 29.5 154.315 29.374C154.243 29.086 154.063 28.672 153.955 28.456C153.757 28.114 153.325 27.88 152.965 27.826C152.479 27.754 151.921 27.718 151.129 27.718V28.798C151.129 29.77 151.219 31.516 151.219 31.84C151.219 32.776 151.417 33.1 151.651 33.208C151.921 33.316 152.263 33.37 153.163 33.37C153.469 33.37 154.225 33.352 154.603 33.316C154.963 33.28 155.503 33.1 155.971 32.722C156.439 32.344 157.447 31.228 157.807 30.796C157.879 30.724 157.933 30.706 157.987 30.742L158.293 30.922C158.365 30.958 158.383 31.012 158.365 31.066L157.555 33.784C157.501 33.946 157.375 34.054 157.159 34.054C157.069 34.054 156.673 34.036 155.521 34.018C154.351 34.018 152.443 34 149.329 34C148.663 34 148.159 34.018 147.799 34.018C147.421 34.036 147.187 34.054 147.025 34.054C146.899 34.054 146.863 34 146.863 33.856V33.478C146.863 33.37 146.917 33.316 147.043 33.316H147.583C148.411 33.316 148.483 33.19 148.483 32.56V26.53C148.483 25.036 148.447 22.822 148.429 22.642C148.357 22.066 148.177 21.94 147.691 21.94H146.989C146.917 21.94 146.899 21.886 146.899 21.76V21.328C146.899 21.274 146.917 21.202 147.025 21.202C147.421 21.202 148.051 21.256 149.689 21.256L156.007 21.238C156.295 21.238 156.637 21.202 156.727 21.202C156.817 21.202 156.853 21.238 156.871 21.292C156.943 21.544 157.537 24.01 157.609 24.19C157.645 24.28 157.645 24.316 157.555 24.37L157.267 24.514C157.195 24.55 157.105 24.532 157.051 24.442C156.961 24.298 155.341 22.678 154.927 22.426C154.549 22.192 154.045 21.958 153.559 21.94L151.183 21.868ZM160.681 27.556V25.81C160.681 24.478 160.681 23.326 160.663 22.84C160.645 22.246 160.411 21.94 160.159 21.94H159.439C159.349 21.94 159.331 21.886 159.331 21.814V21.328C159.331 21.238 159.349 21.202 159.439 21.202C159.601 21.202 160.159 21.256 162.121 21.256C163.129 21.256 164.713 21.202 165.451 21.202C166.855 21.202 167.899 21.706 168.637 22.39C169.285 22.984 169.663 23.686 169.663 24.352C169.663 26.638 167.953 27.664 166.369 27.808V27.934C166.927 28.114 167.215 28.456 167.557 28.888C167.791 29.176 168.781 30.778 168.925 30.994C169.033 31.156 170.005 32.524 170.365 32.938C170.581 33.172 171.265 33.316 171.679 33.316C171.805 33.316 171.823 33.388 171.823 33.46V33.892C171.823 34 171.805 34.054 171.679 34.054C171.535 34.054 171.067 34 169.681 34C169.159 34 168.493 34.036 167.971 34.054C167.431 33.64 166.315 31.552 166.009 30.94C165.397 29.716 164.659 28.384 163.795 28.384H163.183V29.302C163.183 30.364 163.237 32.38 163.273 32.614C163.309 32.992 163.453 33.316 163.723 33.316H164.461C164.587 33.316 164.605 33.37 164.605 33.46V33.892C164.605 34.018 164.587 34.054 164.317 34.054C164.299 34.054 163.849 34 161.959 34C160.051 34 159.637 34.054 159.439 34.054C159.295 34.054 159.295 34 159.295 33.874V33.46C159.295 33.37 159.295 33.316 159.385 33.316H159.925C160.321 33.316 160.645 33.19 160.645 32.74C160.681 30.958 160.681 29.266 160.681 27.556ZM163.291 22.498L163.201 27.754C163.543 27.772 163.759 27.772 163.921 27.772C166.297 27.772 166.855 25.504 166.855 24.658C166.855 23.83 166.567 23.038 166.171 22.642C165.523 22.066 164.713 21.85 164.173 21.85C163.867 21.85 163.633 21.886 163.489 22.012C163.381 22.084 163.327 22.282 163.291 22.498ZM178.961 29.068H175.019C174.875 29.446 173.993 31.912 173.993 32.488C173.993 32.884 174.155 33.316 174.695 33.316H175.325C175.505 33.316 175.523 33.388 175.523 33.46V33.856C175.523 34 175.505 34.054 175.361 34.054C175.127 34.054 174.389 34 172.913 34C171.599 34 171.203 34.054 170.951 34.054C170.843 34.054 170.825 33.946 170.825 33.82V33.478C170.825 33.37 170.843 33.316 170.951 33.316H171.419C171.851 33.316 172.283 33.064 172.643 32.524C172.895 32.146 174.173 29.014 174.767 27.43C174.911 27.07 176.369 23.2 176.531 22.714C176.585 22.534 176.675 22.3 176.549 22.102C176.495 22.03 176.423 21.94 176.423 21.868C176.423 21.814 176.459 21.742 176.603 21.706C177.179 21.58 178.349 21.112 178.619 20.806C178.709 20.716 178.763 20.644 178.853 20.644C178.961 20.644 178.997 20.752 179.051 20.95C179.393 22.084 180.797 26.116 181.139 27.268C181.553 28.672 182.723 32.02 182.975 32.506C183.281 33.1 183.749 33.316 184.019 33.316H184.631C184.739 33.316 184.757 33.388 184.757 33.478V33.82C184.757 33.928 184.739 34.054 184.595 34.054C184.253 34.054 183.875 34 181.571 34C180.077 34 179.447 34.054 179.087 34.054C178.907 34.054 178.889 33.946 178.889 33.82V33.478C178.889 33.388 178.907 33.316 178.997 33.316H179.501C179.987 33.316 180.149 33.136 180.041 32.668C179.879 32.02 179.177 29.716 178.961 29.068ZM175.253 28.348H178.799C178.637 27.808 177.575 24.028 177.449 23.578C177.377 23.308 177.341 23.182 177.251 23.182C177.143 23.182 177.089 23.254 177.035 23.416C176.945 23.65 175.397 27.898 175.253 28.348ZM189.43 26.818V28.366C189.43 28.672 189.43 32.56 189.484 33.28H190.51C191.356 33.28 192.166 33.28 193.138 33.19C194.11 33.1 195.334 30.94 195.604 30.274C195.658 30.166 195.712 30.112 195.82 30.166L196.18 30.31C196.234 30.346 196.234 30.364 196.216 30.472C196.162 30.598 195.442 33.568 195.334 34.054C194.866 34.018 189.682 34 188.026 34C186.244 34 185.596 34.054 185.362 34.054C185.236 34.054 185.218 34.018 185.218 33.892V33.442C185.218 33.352 185.236 33.316 185.344 33.316H185.902C186.568 33.316 186.676 33.064 186.676 32.866C186.676 32.524 186.73 28.042 186.73 26.944V25.936C186.73 24.784 186.694 22.876 186.676 22.588C186.64 22.12 186.55 21.94 186.136 21.94H185.47C185.362 21.94 185.344 21.85 185.344 21.76V21.328C185.344 21.238 185.362 21.202 185.47 21.202C185.668 21.202 186.316 21.256 187.954 21.256C190.06 21.256 190.816 21.202 190.978 21.202C191.122 21.202 191.14 21.256 191.14 21.382V21.796C191.14 21.886 191.104 21.94 190.96 21.94H190.114C189.556 21.94 189.484 22.12 189.484 22.606C189.484 22.84 189.43 25.558 189.43 26.818ZM198.139 27.088V25.738C198.139 25.27 198.085 22.714 198.049 22.444C197.995 22.012 197.761 21.94 197.455 21.94H196.555C196.465 21.94 196.411 21.922 196.411 21.814V21.292C196.411 21.22 196.465 21.202 196.537 21.202C196.771 21.202 197.563 21.256 199.363 21.256C199.831 21.256 201.631 21.202 202.045 21.202C204.493 21.202 206.437 21.418 208.147 22.84C209.335 23.83 210.163 25.324 210.163 27.412C210.163 29.482 209.569 30.85 208.381 32.146C206.635 34.036 203.557 34.054 202.423 34.054C202.135 34.054 200.011 34 199.021 34C197.455 34 196.735 34.054 196.483 34.054C196.393 34.054 196.357 34.018 196.357 33.892V33.424C196.357 33.352 196.411 33.316 196.501 33.316H197.437C197.779 33.316 197.977 33.172 198.013 32.884C198.067 32.506 198.139 28.456 198.139 27.088ZM200.839 26.206V27.484C200.839 27.718 200.857 30.778 200.875 31.894C200.875 32.254 200.947 32.542 201.181 32.884C201.397 33.208 202.009 33.316 202.621 33.316C203.665 33.316 205.051 32.794 205.987 31.552C206.707 30.598 207.265 29.122 207.265 27.448C207.265 25.972 206.653 24.46 205.807 23.524C204.853 22.462 203.269 21.886 202.225 21.886C201.721 21.886 201.451 21.904 201.217 22.03C200.947 22.156 200.875 22.444 200.857 22.804C200.839 23.56 200.839 25.918 200.839 26.206Z" fill="black"/>
</svg>
